<?xml version="1.0" encoding="utf-8"?>
<svg viewBox="0 0 37 32" version="1.1" xmlns="http://www.w3.org/2000/svg">
  <title>Navigation/-elements/NCL-Shield</title>
  <desc>Created with Sketch.</desc>
  <g id="Navigation/-elements/NCL-Shield" stroke="none" stroke-width="1" fill="none" fill-rule="evenodd" transform="matrix(1.054645, 0, 0, 1.054645, 0.043303, 0)">
    <g id="Logos/NCL-Full">
      <path d="M34.9993762,0 L0,0 L0,29.3749316 C0,29.3749316 3.11936774,26.5075683 7.40577902,26.2281663 C13.5364419,25.8251289 16.0705335,28.8035545 21.8875052,29.7912406 C28.9999443,30.9961618 33.6463636,26.6465709 34.7334054,25.3885632 C34.9993762,25.0644569 34.9558665,24.9806363 34.9867443,24.9058963 L34.9993762,24.8115981 C35.0007797,24.8115981 34.9993762,0 34.9993762,0 Z" id="Combined-Shape" fill="#0A84BD"/>
      <path d="M2.96377181,23.5717335 C4.13481483,22.9446608 5.17364331,22.625774 7.63535201,22.4809552 C13.5857056,22.1278255 15.8060703,24.3800081 21.4339323,25.2703229 C25.8592717,25.9694483 28.3538592,24.962137 30.2370418,23.7329604 C31.2359961,23.0809189 30.9708675,23.2528467 31.4941292,22.8069759 C31.958629,22.4124694 32.0705566,22.1363862 32.0034,21.8617298 C31.9831131,21.7796896 31.8956697,21.7796896 31.7277782,21.8938325 C31.5948641,21.9815799 31.3395292,22.1549345 31.3395292,22.1549345 C26.9113916,25.3052792 21.1044453,23.4533102 16.0341229,21.8310539 C11.3163725,20.3222271 5.52201811,20.9828293 2.90011296,22.8875894 C2.90011296,22.8875894 2.58811464,23.0923332 2.36705754,23.4361888 C2.29500412,23.5496183 2.1264131,24.0118972 2.33417879,23.9141623 C2.57482324,23.8014462 2.76859798,23.6623345 2.96377181,23.5717335" id="Fill-3" fill="#FFFFFF"/>
      <polyline id="Fill-4" fill="#FFFFFF" points="10.6194103 15.75 5.34469605 9.55233579 5.34469605 15.75 2.9787234 15.75 2.9787234 6 5.18951413 6 10.2936018 12.0021771 10.2936018 6 12.6595745 6 12.6595745 15.75 10.6194103 15.75"/>
      <path d="M18.7836864,16.5 C15.6962683,16.5 13.4042553,14.1950718 13.4042553,11.2794713 L13.4042553,11.25 C13.4042553,8.36387076 15.6516463,6 18.8722221,6 C20.8504645,6 22.0347185,6.63877285 23.0100281,7.56609008 L21.5410432,9.20620104 C20.7314725,8.49409269 19.9070278,8.06024804 18.8573481,8.06024804 C17.0908832,8.06024804 15.8166769,9.48035248 15.8166769,11.2205287 L15.8166769,11.25 C15.8166769,12.9901762 17.0604269,14.4404373 18.8573481,14.4404373 C20.0564761,14.4404373 20.7909685,13.9771214 21.6154132,13.2513055 L23.0851064,14.687859 C22.0056787,15.8043407 20.8065508,16.5 18.7836864,16.5" id="Fill-5" fill="#FFFFFF"/>
      <polyline id="Fill-6" fill="#FFFFFF" points="24.5744681 15.75 24.5744681 6 26.8552456 6 26.8552456 13.7997367 32.0212766 13.7997367 32.0212766 15.75 24.5744681 15.75"/>
    </g>
  </g>
</svg>